<svg width="88" height="80" viewBox="0 0 88 80" fill="none" xmlns="http://www.w3.org/2000/svg">
<path d="M22 17.7778V13.3333C22 9.79711 23.3907 6.40573 25.8662 3.90524C28.3417 1.40476 31.6991 0 35.2 0H52.8C56.3009 0 59.6583 1.40476 62.1338 3.90524C64.6093 6.40573 66 9.79711 66 13.3333V17.7778H74.8C78.3009 17.7778 81.6583 19.1825 84.1338 21.683C86.6093 24.1835 88 27.5749 88 31.1111V66.6667C88 70.2029 86.6093 73.5943 84.1338 76.0948C81.6583 78.5952 78.3009 80 74.8 80H13.2C9.69914 80 6.34167 78.5952 3.86619 76.0948C1.39071 73.5943 0 70.2029 0 66.6667L0 31.1111C0 27.5749 1.39071 24.1835 3.86619 21.683C6.34167 19.1825 9.69914 17.7778 13.2 17.7778H22ZM48.4 44.4444V35.5556H39.6V44.4444H30.8V53.3333H39.6V62.2222H48.4V53.3333H57.2V44.4444H48.4ZM30.8 17.7778H57.2V13.3333C57.2 12.1546 56.7364 11.0241 55.9113 10.1906C55.0861 9.35714 53.967 8.88889 52.8 8.88889H35.2C34.033 8.88889 32.9139 9.35714 32.0887 10.1906C31.2636 11.0241 30.8 12.1546 30.8 13.3333V17.7778Z" fill="#1E444B"/>
</svg>
