<svg width="15" height="25" viewBox="0 0 15 25" fill="none" xmlns="http://www.w3.org/2000/svg">
<path fill-rule="evenodd" clip-rule="evenodd" d="M8.83604 4.99996C10.1977 4.99996 11.3015 3.88068 11.3015 2.49998C11.3015 1.11928 10.1977 0 8.83604 0C7.4745 0 6.3706 1.11928 6.3706 2.49998C6.3706 3.88068 7.4745 4.99996 8.83604 4.99996ZM6.43569 5.75692C6.84409 5.54985 7.332 5.58867 7.70354 5.85779L8.93626 6.75064C9.32838 7.03469 9.5213 7.52443 9.43021 8.00428L8.13733 14.8086L13.5599 23.0564C13.9375 23.6308 13.7845 24.4069 13.218 24.7899C12.6515 25.1728 11.8861 25.0175 11.5086 24.4432L5.80553 15.7689L4.80026 14.2398C4.62429 13.9721 4.55686 13.646 4.61199 13.3291L5.34733 9.10379L3.14661 10.2195L2.44172 13.7916C2.30813 14.4686 1.65866 14.9075 0.99108 14.7721C0.323502 14.6366 -0.109379 13.978 0.0241983 13.3011L0.847382 9.12966C0.922011 8.75147 1.16465 8.42938 1.50485 8.25689L6.43569 5.75692ZM13.3771 13.6858L9.83367 12.488L10.3041 10.0119L14.1568 11.314C14.8026 11.5324 15.1517 12.2403 14.9364 12.8951C14.7211 13.5501 14.0231 13.9041 13.3771 13.6858ZM0.365353 23.1369L4.39378 15.875L4.77988 16.4622L5.92806 18.2085L2.51416 24.3627C2.18039 24.9643 1.42878 25.1777 0.835412 24.8393C0.242032 24.5008 0.0315824 23.7387 0.365353 23.1369Z" fill="white"/>
</svg>
