<svg width="125" height="53" viewBox="0 0 125 53" fill="none" xmlns="http://www.w3.org/2000/svg">
<path d="M98.7754 26.5268C98.7754 26.5268 96.3201 33.4729 95.9933 40.2314C95.7391 45.4879 96.5497 49.8058 96.5497 49.8058C96.5497 49.8058 97.1061 49.8141 98.0335 49.4958C98.9608 49.1775 99.5173 48.7449 99.5173 48.7449C99.5173 48.7449 100.445 44.9902 101.743 41.2355C102.547 38.9101 105.54 31.2856 105.54 31.2856C105.54 31.2856 105.46 38.3464 104.711 42.5496C104.355 44.5452 103.041 47.8062 103.041 47.8062C103.041 47.8062 104.184 47.7179 105.54 47.243C107.147 46.6798 107.864 45.7411 107.864 45.7411C107.864 45.7411 107.06 42.4073 107.06 38.7949C107.06 34.1471 109.162 25.4004 109.162 25.4004C109.162 25.4004 108.51 25.2531 107.644 25.4004C106.778 25.5477 105.789 26.029 105.789 26.029C105.789 26.029 103.871 30.2668 102.67 33.3507C101.701 35.8396 97.848 46.3043 97.848 46.3043C97.848 46.3043 98.888 37.2578 99.3318 34.7871C100.074 30.6569 102.114 26.029 102.114 26.029C102.114 26.029 101.187 25.9 100.259 26.029C99.3318 26.158 98.7754 26.5268 98.7754 26.5268Z" fill="#1E444B"/>
<path d="M110.831 25.2131C110.831 25.2131 111.458 24.9997 112.686 24.8478C113.914 24.6959 114.726 24.8478 114.726 24.8478C114.726 24.8478 113.443 26.5272 113.799 28.78C114.155 31.0328 115.283 32.1592 115.283 32.1592C115.283 32.1592 117.155 29.9163 117.879 28.4045C118.587 26.9279 118.25 24.6499 118.25 24.6499C118.25 24.6499 119.418 24.4621 120.847 24.4621C123.444 24.4621 124 25.2131 124 25.2131C124 25.2131 123.073 25.6355 120.847 27.4659C117.879 29.9064 117.137 33.4734 117.137 33.4734C117.137 33.4734 117.137 34.1438 118.621 35.163C119.94 36.0691 123.073 34.7875 123.073 34.7875C123.073 34.7875 122.194 36.6648 120.847 38.1667C119.912 39.2095 117.137 40.9827 117.137 40.9827C117.137 40.9827 118.436 39.2931 117.137 37.4158C116.24 36.1188 114.726 35.163 114.726 35.163C114.726 35.163 112.602 36.2894 111.944 39.2931C111.286 42.2969 114.726 42.2969 114.726 42.2969C114.726 42.2969 113.908 43.1328 112.315 43.9865C111.221 44.5727 109.347 45.1129 109.347 45.1129C109.347 45.1129 108.743 41.5839 109.347 38.7299C109.904 36.1016 112.686 33.0979 112.686 33.0979C112.686 33.0979 111.829 31.9037 111.202 30.2819C110.234 27.7762 110.831 25.2131 110.831 25.2131Z" fill="#1E444B"/>
<path fill-rule="evenodd" clip-rule="evenodd" d="M84.6792 28.029C84.6792 28.029 85.6066 31.7837 85.2357 38.5421C84.7822 46.8041 83.1954 51.6835 83.1954 51.6835C83.1954 51.6835 87.1528 51.3745 89.3161 51.1203C91.5044 50.8631 94.8804 50.1816 94.8804 50.1816C94.8804 50.1816 94.3317 43.9289 94.5252 40.0633C94.7777 35.0185 97.1061 26.7149 97.1061 26.7149C97.1061 26.7149 92.8059 26.8356 90.429 27.0903C88.0316 27.3473 84.6792 28.029 84.6792 28.029ZM93.0256 30.4695C93.2343 29.3431 87.8323 29.4791 87.8323 30.845C87.8323 32.2109 87.7903 35.7133 87.4614 38.5421C87.0431 42.1398 86.7195 45.8637 86.3485 48.3043C86.1799 49.4139 91.7273 49.1216 91.7273 47.7411C91.7273 45.1128 91.6944 42.6958 92.0982 37.7912C92.4692 33.2856 92.4692 33.4733 93.0256 30.4695Z" fill="#1E444B"/>
<path d="M106.534 3.93827C106.534 3.93827 106.936 6.8148 108.049 9.44307C109.162 12.0713 111.159 13.9487 111.159 13.9487C111.159 13.9487 109.162 15.826 109.162 18.8298C109.162 20.702 110.089 22.9512 110.089 22.9512H114.109C114.109 22.9512 111.944 21.2285 111.944 18.642C111.944 16.2015 113.428 14.8874 113.428 14.8874C113.428 14.8874 113.799 16.9524 115.839 19.393C117.879 21.8335 119.93 22.9512 119.93 22.9512H124C124 22.9512 121.431 21.2703 118.807 18.8298C116.182 16.3892 116.182 14.8874 116.182 14.8874C116.182 14.8874 116.858 13.6813 118.065 13.1978C119.002 12.8223 122.145 13.3855 122.145 13.3855C122.145 13.3855 121.032 12.0713 119.363 10.5695C117.694 9.06761 115.839 8.31667 115.839 8.31667C115.839 8.31667 117.323 11.1327 115.839 12.0713C114.347 13.0153 113.057 13.1978 113.057 13.1978C113.057 13.1978 111.125 11.2182 110.646 10.0063C109.162 6.2516 112.13 6.2516 112.13 6.2516C112.13 6.2516 110.883 5.4578 109.347 4.74973C108.434 4.32839 106.534 3.93827 106.534 3.93827Z" fill="#1E444B"/>
<path d="M89.5016 1.55859C89.5016 1.55859 90.9779 4.06366 92.0983 6.62741C93.2111 9.17379 94.6949 12.6172 96.1787 18.0792C97.0371 21.2388 97.6625 24.0867 97.6625 24.0867C97.6625 24.0867 98.0335 24.2744 99.1463 24.2744C100.259 24.2744 101.187 23.8989 101.187 23.8989L102.67 7.19061C102.67 7.19061 103.783 16.765 104.34 19.9565C104.68 21.9094 104.896 23.5235 104.896 23.5235C104.896 23.5235 105.452 23.7738 106.565 23.7112C107.678 23.6486 108.42 23.3357 108.42 23.3357C108.42 23.3357 107.792 21.1375 106.565 16.2018C105.772 13.0104 104.711 3.62366 104.711 3.62366C104.711 3.62366 103.969 3.27026 102.67 3.06046C101.558 2.88063 100.86 3.00147 100.86 3.00147C100.86 3.00147 100.259 9.81888 99.8883 12.2594C99.5173 14.7 99.1463 18.0792 99.1463 18.0792C99.1463 18.0792 97.2461 11.2587 96.3642 8.69248C94.8804 4.3746 93.0257 1.87923 93.0257 1.87923C93.0257 1.87923 91.859 1.6212 91.1709 1.55859C90.4828 1.49598 89.5016 1.55859 89.5016 1.55859Z" fill="#1E444B"/>
<path fill-rule="evenodd" clip-rule="evenodd" d="M76.7038 2.30924C76.7038 2.30924 78.2919 4.90804 80.0424 8.6305C81.3186 11.3446 83.3809 15.4506 84.4938 19.7685C85.302 22.9043 85.4211 25.4005 85.4211 25.4005C85.4211 25.4005 88.0178 25.3323 91.3563 25.0251C95.4368 24.6496 95.9932 24.2741 95.9932 24.2741C95.9932 24.2741 94.3705 16.5779 93.0256 12.8223C91.076 7.37805 87.2759 1.18284 87.2759 1.18284C87.2759 1.18284 85.7921 0.771445 82.2681 1.18284C78.744 1.59424 76.7038 2.30924 76.7038 2.30924ZM85.0502 13.3855C83.9303 10.7582 81.2551 5.67271 81.3407 4.74979C81.4263 3.82687 85.2214 3.4514 85.9776 4.37432C86.7337 5.29724 88.3887 8.129 90.2435 12.8223C91.5789 16.2016 92.4692 20.3317 92.4692 21.6458C92.4692 22.96 88.7597 23.3354 88.2033 22.0213C87.6468 20.7072 86.8105 17.5157 85.0502 13.3855Z" fill="#1E444B"/>
<path fill-rule="evenodd" clip-rule="evenodd" d="M60.1966 28.7795C60.1966 28.7795 57.924 31.7832 56.1161 36.852C55.0014 39.9774 54.4468 42.8987 53.334 45.3C52.7188 46.6275 52.0585 45.5901 51.8502 46.2387C51.5501 47.1733 51.2938 47.3651 51.2938 47.3651C51.2938 47.3651 52.2211 47.7724 52.7775 47.9283C53.7084 48.1891 54.6323 48.5786 54.6323 48.5786L55.0033 46.9896L66.1318 49.8897L65.9463 50.9321C65.9463 50.9321 66.5408 51.1974 67.4301 51.3075C68.3081 51.4162 69.0993 51.4953 69.0993 51.4953C69.0993 51.4953 69.0901 50.8136 69.0993 49.8897C69.0774 49.1679 68.4042 49.8619 68.172 48.867C67.801 47.278 67.9163 43.9635 68.5429 40.419C69.2725 36.2923 72.0669 28.404 72.0669 28.404C72.0669 28.404 69.4658 28.404 67.0591 28.404C64.0915 28.404 60.1966 28.7795 60.1966 28.7795ZM61.4949 31.7832C60.9985 32.2835 59.917 34.2895 58.8982 36.852C57.8478 39.4942 57.1188 43.2989 57.0435 43.9859C56.8951 45.3392 64.8887 46.8879 65.0189 44.9246C65.0827 43.9626 65.4123 41.1844 65.9463 38.7294C66.5011 36.1787 67.4734 33.0973 67.801 31.7832C68.1287 30.4691 62.5032 30.7671 61.4949 31.7832Z" fill="#1E444B"/>
<path d="M54.8177 11.5078C54.4468 12.6342 53.92 14.8437 55.1887 19.0172C55.9306 21.4577 57.9708 25.1123 61.1239 25.9633C65.3076 27.0926 72.9943 26.151 72.9943 26.151L70.954 22.9596C70.954 22.9596 67.7773 23.4289 66.5027 23.5228C65.228 23.6166 63.535 23.7105 62.0512 22.9596C60.5674 22.2086 59.0836 21.6454 57.7853 16.9521C56.3043 11.5984 59.8256 9.63046 61.3094 9.25499C64.0915 8.55099 65.2043 8.69179 65.2043 8.69179L63.906 5.68805C63.906 5.68805 60.4628 6.12533 58.3418 7.37765C56.1161 8.69179 55.1886 10.3814 54.8177 11.5078Z" fill="#1E444B"/>
<path fill-rule="evenodd" clip-rule="evenodd" d="M67.9864 11.6974C69.551 15.8465 70.0985 17.0188 71.1395 19.2057C72.3737 21.7985 74.849 25.9641 74.849 25.9641C74.849 25.9641 76.3328 26.1391 79.1149 25.9641C82.0991 25.7763 83.5663 25.4009 83.5663 25.4009C83.5663 25.4009 83.4756 20.4754 82.268 17.5161C81.0605 14.5567 80.0423 12.8227 78.744 11.884C77.4457 10.9454 75.9619 11.5086 75.9619 11.5086C75.9619 11.5086 77.101 8.69255 76.7038 7.19068C76.3065 5.68881 76.1473 4.75014 73.9217 3.62373C72.7905 3.05124 70.434 3.12172 69.0993 3.436C67.0839 3.91056 65.5752 4.93704 65.5752 4.93704C65.5752 4.93704 67.4633 10.3102 67.9864 11.6974ZM71.1395 12.4472C70.3487 11.8153 68.899 7.30531 68.8889 6.43975C68.8788 5.57419 71.325 4.93703 72.6233 5.50108C73.9216 6.06512 75.0345 8.69144 74.1071 10.3822C73.6037 11.2999 71.9303 13.0792 71.1395 12.4472ZM76.0645 23.1481C74.8516 22.027 72.6233 17.1336 72.6233 15.8264C72.6233 14.2493 76.4437 14.0547 77.4457 14.7C79.4859 16.0142 81.0825 21.698 80.5987 22.7726C80.2374 23.5753 77.2395 24.2341 76.0645 23.1481Z" fill="#1E444B"/>
<path fill-rule="evenodd" clip-rule="evenodd" d="M70.3976 41.921C70.097 46.0783 70.3976 50.5568 70.3976 50.5568C70.3976 50.5568 72.637 51.5413 75.4054 51.8709C78.5585 52.2464 80.7842 51.6832 80.7842 51.6832C80.7842 51.6832 81.897 50.7445 82.6389 46.8021C83.3808 42.8597 82.8244 41.3578 81.5261 39.4805C80.2277 37.6032 79.1149 37.6031 79.1149 37.6031C79.1149 37.6031 81.314 36.8521 82.6389 34.9747C83.9638 33.0974 83.9374 30.0936 82.6389 28.404C81.8155 27.3326 78.5584 27.6656 77.2603 27.8408C74.4781 28.2163 74.1429 28.7862 74.1429 28.7862C74.1429 28.7862 70.954 34.2239 70.3976 41.921ZM74.1429 35.3502C74.4781 34.036 75.4054 31.5957 76.1473 31.0325C76.8892 30.4693 79.994 29.8469 80.7842 31.0325C81.5743 32.218 81.1551 33.6606 79.4858 34.9747C78.6672 35.6192 73.8076 36.6643 74.1429 35.3502ZM72.9942 47.5531C72.5738 45.946 73.0719 40.6945 73.5506 39.4805C74.1429 37.9786 78.5585 39.105 79.4858 41.5456C80.5559 44.3616 79.5399 48.0409 78.5585 48.6795C77.8253 49.1565 73.4015 49.11 72.9942 47.5531Z" fill="#1E444B"/>
<path fill-rule="evenodd" clip-rule="evenodd" d="M22.2656 5.88121C22.2656 5.88121 22.7674 14.1277 22.6365 17.7035C22.4511 22.7723 21.8187 25.7714 21.2469 29.6586C20.3437 35.7985 16.8868 43.9912 16.8868 43.9912C16.8868 43.9912 17.0723 44.1789 18.3706 44.3667C19.6689 44.5544 20.4108 44.5544 20.4108 44.5544C20.4108 44.5544 22.2952 40.7997 23.193 37.045C24.0907 33.2904 24.7295 29.6134 25.0477 28.597C25.3659 27.5807 32.5608 28.5986 32.4667 29.7234C32.3727 30.8482 32.0958 34.4168 30.4265 38.9224C28.7572 43.428 27.2713 45.5464 27.2713 45.5464C27.2713 45.5464 28.1908 45.8636 29.5932 45.8636C30.5407 45.8636 31.8189 45.5464 31.8189 45.5464C31.8189 45.5464 35.1453 36.8574 35.9907 30.6621C36.3219 28.2355 36.7394 24.6571 36.9181 22.2141C37.3263 16.6329 36.4186 8.88 36.4186 8.88C36.4186 8.88 34.7865 8.16638 29.9642 7.00266C25.554 5.93842 22.2656 5.88121 22.2656 5.88121ZM32.8377 24.4669C32.6399 25.3386 25.6923 25.0428 25.7896 23.9037C25.8869 22.7645 26.0692 22.0214 26.0692 17.7035C26.0692 13.3856 26.0692 11.1901 26.0692 10.0114C26.0692 8.83266 31.2614 10.3086 31.7256 11.1901C32.1899 12.0715 33.5796 13.5783 33.5796 17.7035C33.5796 20.6135 33.0354 23.5952 32.8377 24.4669Z" fill="#1E444B"/>
<path d="M12.4081 6.81503C12.4081 6.81503 7.0293 9.63104 4.43264 13.3857C1.83599 17.1404 1.43594 20.3712 1.09423 23.543C0.752519 26.7148 1.302 30.4526 3.37202 34.0681C5.44204 37.6835 8.14214 39.8562 8.14214 39.8562L9.65322 36.6696C9.65322 36.6696 6.20322 32.8441 5.20182 29.9112C4.43264 27.6583 3.76618 25.0301 4.43264 24.6546C5.09911 24.2791 6.31467 25.6274 10.2096 26.3442C14.2901 27.0951 15.8381 26.4097 16.1449 27.0951C16.4516 27.7806 15.8294 31.8181 15.403 33.2904C14.2161 37.3879 12.0644 41.7384 12.0644 41.7384C12.0644 41.7384 12.4353 42.1139 13.5482 42.6771C14.661 43.2403 15.403 43.428 15.403 43.428C15.403 43.428 16.3886 41.1836 16.8595 39.8562C17.8281 37.1257 18.3855 35.5668 19.0852 32.7223C19.8668 29.5448 20.2448 26.9687 20.569 23.7111C20.8579 20.8077 20.9672 18.7443 20.9672 15.8263L20.569 6.06891C20.569 6.06891 20.2253 5.88136 18.556 5.88121C17.1698 5.88108 16.5158 6.06891 16.5158 6.06891C16.5158 6.06891 17.6287 12.0541 17.6287 15.2679C17.6287 18.2982 17.4852 22.1772 16.8868 22.6592C16.2883 23.1413 13.965 23.9037 10.5806 23.1527C7.51028 22.4715 5.68281 21.2754 5.20182 20.5245C4.72083 19.7735 6.1292 16.2066 8.3549 13.9538C10.5806 11.701 13.1772 10.3868 13.1772 10.3868L12.4081 6.81503Z" fill="#1E444B"/>
<path d="M20.569 6.06891C20.569 6.06891 20.9672 11.5591 20.9672 15.8263M20.569 6.06891L20.9672 15.8263M20.569 6.06891C20.569 6.06891 20.2253 5.88136 18.556 5.88121C17.1698 5.88108 16.5158 6.06891 16.5158 6.06891C16.5158 6.06891 17.6287 12.0541 17.6287 15.2679C17.6287 18.2982 17.4852 22.1772 16.8868 22.6592C16.2883 23.1413 13.965 23.9037 10.5806 23.1527C7.51028 22.4715 5.68281 21.2754 5.20182 20.5245C4.72083 19.7735 6.1292 16.2066 8.3549 13.9538C10.5806 11.701 13.1772 10.3868 13.1772 10.3868L12.4081 6.81503C12.4081 6.81503 7.0293 9.63104 4.43264 13.3857C1.83599 17.1404 1.43594 20.3712 1.09423 23.543C0.752519 26.7148 1.302 30.4526 3.37202 34.0681C5.44204 37.6835 8.14213 39.8562 8.14213 39.8562L9.65322 36.6696C9.65322 36.6696 6.20322 32.8441 5.20182 29.9112C4.43264 27.6583 3.76618 25.0301 4.43264 24.6546C5.09911 24.2791 6.31467 25.6274 10.2096 26.3442C14.2901 27.0951 15.8381 26.4097 16.1449 27.0951C16.4516 27.7806 15.8294 31.8181 15.403 33.2904C14.2161 37.3879 12.0644 41.7384 12.0644 41.7384C12.0644 41.7384 12.4353 42.1139 13.5482 42.6771C14.6611 43.2403 15.403 43.428 15.403 43.428C15.403 43.428 16.3886 41.1836 16.8595 39.8562C17.8281 37.1257 18.3855 35.5668 19.0852 32.7223C19.8668 29.5448 20.2448 26.9687 20.569 23.7111C20.8579 20.8077 20.9672 18.7443 20.9672 15.8263M98.7754 26.5268C98.7754 26.5268 96.3201 33.4729 95.9933 40.2314C95.7391 45.4879 96.5497 49.8058 96.5497 49.8058C96.5497 49.8058 97.1061 49.8141 98.0335 49.4958C98.9608 49.1775 99.5173 48.7449 99.5173 48.7449C99.5173 48.7449 100.445 44.9902 101.743 41.2355C102.547 38.9101 105.54 31.2856 105.54 31.2856C105.54 31.2856 105.46 38.3464 104.711 42.5496C104.355 44.5452 103.041 47.8062 103.041 47.8062C103.041 47.8062 104.184 47.7179 105.54 47.243C107.147 46.6798 107.864 45.7411 107.864 45.7411C107.864 45.7411 107.06 42.4073 107.06 38.795C107.06 34.1471 109.162 25.4004 109.162 25.4004C109.162 25.4004 108.51 25.2531 107.644 25.4004C106.778 25.5477 105.789 26.029 105.789 26.029C105.789 26.029 103.871 30.2668 102.67 33.3507C101.701 35.8396 97.848 46.3043 97.848 46.3043C97.848 46.3043 98.888 37.2578 99.3318 34.7871C100.074 30.6569 102.114 26.029 102.114 26.029C102.114 26.029 101.187 25.9 100.259 26.029C99.3318 26.158 98.7754 26.5268 98.7754 26.5268ZM110.831 25.2131C110.831 25.2131 110.234 27.7762 111.202 30.2819C111.829 31.9037 112.686 33.0979 112.686 33.0979C112.686 33.0979 109.904 36.1016 109.347 38.7299C108.743 41.5839 109.347 45.1129 109.347 45.1129C109.347 45.1129 111.221 44.5727 112.315 43.9865C113.908 43.1328 114.726 42.2969 114.726 42.2969C114.726 42.2969 111.286 42.2969 111.944 39.2931C112.602 36.2894 114.726 35.163 114.726 35.163C114.726 35.163 116.24 36.1188 117.137 37.4158C118.436 39.2931 117.137 40.9827 117.137 40.9827C117.137 40.9827 119.912 39.2095 120.847 38.1667C122.194 36.6648 123.073 34.7875 123.073 34.7875C123.073 34.7875 119.94 36.0691 118.621 35.163C117.137 34.1438 117.137 33.4734 117.137 33.4734C117.137 33.4734 117.879 29.9064 120.847 27.4659C123.073 25.6355 124 25.2131 124 25.2131C124 25.2131 123.444 24.4621 120.847 24.4621C119.418 24.4621 118.25 24.6499 118.25 24.6499C118.25 24.6499 118.587 26.9279 117.879 28.4045C117.155 29.9163 115.283 32.1592 115.283 32.1592C115.283 32.1592 114.155 31.0328 113.799 28.78C113.443 26.5272 114.726 24.8478 114.726 24.8478C114.726 24.8478 113.914 24.6959 112.686 24.8478C111.458 24.9997 110.831 25.2131 110.831 25.2131ZM84.6792 28.029C84.6792 28.029 85.6066 31.7837 85.2357 38.5421C84.7822 46.8041 83.1954 51.6835 83.1954 51.6835C83.1954 51.6835 87.1528 51.3745 89.3161 51.1203C91.5044 50.8631 94.8804 50.1816 94.8804 50.1816C94.8804 50.1816 94.3317 43.9289 94.5252 40.0633C94.7777 35.0185 97.1061 26.7149 97.1061 26.7149C97.1061 26.7149 92.8059 26.8356 90.429 27.0903C88.0316 27.3473 84.6792 28.029 84.6792 28.029ZM87.8323 30.845C87.8323 29.4791 93.2343 29.3431 93.0256 30.4695C92.4692 33.4733 92.4692 33.2856 92.0982 37.7912C91.6944 42.6958 91.7273 45.1128 91.7273 47.7411C91.7273 49.1216 86.1799 49.4139 86.3485 48.3043C86.7195 45.8637 87.0431 42.1398 87.4614 38.5421C87.7903 35.7133 87.8323 32.2109 87.8323 30.845ZM106.534 3.93827C106.534 3.93827 106.936 6.8148 108.049 9.44307C109.162 12.0713 111.159 13.9487 111.159 13.9487C111.159 13.9487 109.162 15.826 109.162 18.8298C109.162 20.702 110.089 22.9512 110.089 22.9512H114.109C114.109 22.9512 111.944 21.2285 111.944 18.642C111.944 16.2015 113.428 14.8874 113.428 14.8874C113.428 14.8874 113.799 16.9524 115.839 19.393C117.879 21.8335 119.93 22.9512 119.93 22.9512H124C124 22.9512 121.431 21.2703 118.807 18.8298C116.182 16.3892 116.182 14.8874 116.182 14.8874C116.182 14.8874 116.858 13.6813 118.065 13.1978C119.002 12.8223 122.145 13.3855 122.145 13.3855C122.145 13.3855 121.032 12.0713 119.363 10.5695C117.694 9.06761 115.839 8.31667 115.839 8.31667C115.839 8.31667 117.323 11.1327 115.839 12.0713C114.347 13.0153 113.057 13.1978 113.057 13.1978C113.057 13.1978 111.125 11.2182 110.646 10.0063C109.162 6.2516 112.13 6.2516 112.13 6.2516C112.13 6.2516 110.883 5.4578 109.347 4.74973C108.434 4.32839 106.534 3.93827 106.534 3.93827ZM89.5016 1.55859C89.5016 1.55859 90.9779 4.06366 92.0983 6.62741C93.2111 9.17379 94.6949 12.6172 96.1787 18.0792C97.0371 21.2388 97.6625 24.0867 97.6625 24.0867C97.6625 24.0867 98.0335 24.2744 99.1463 24.2744C100.259 24.2744 101.187 23.8989 101.187 23.8989L102.67 7.19061C102.67 7.19061 103.783 16.765 104.34 19.9565C104.68 21.9094 104.896 23.5235 104.896 23.5235C104.896 23.5235 105.453 23.7738 106.565 23.7112C107.678 23.6486 108.42 23.3357 108.42 23.3357C108.42 23.3357 107.792 21.1375 106.565 16.2018C105.772 13.0104 104.711 3.62366 104.711 3.62366C104.711 3.62366 103.969 3.27026 102.67 3.06046C101.558 2.88063 100.86 3.00147 100.86 3.00147C100.86 3.00147 100.259 9.81888 99.8882 12.2594C99.5173 14.7 99.1463 18.0792 99.1463 18.0792C99.1463 18.0792 97.2461 11.2587 96.3642 8.69248C94.8804 4.3746 93.0257 1.87923 93.0257 1.87923C93.0257 1.87923 91.859 1.6212 91.1709 1.55859C90.4828 1.49598 89.5016 1.55859 89.5016 1.55859ZM76.7038 2.30924C76.7038 2.30924 78.2919 4.90804 80.0424 8.6305C81.3186 11.3446 83.3809 15.4506 84.4938 19.7685C85.302 22.9043 85.4211 25.4005 85.4211 25.4005C85.4211 25.4005 88.0178 25.3323 91.3563 25.0251C95.4368 24.6496 95.9932 24.2741 95.9932 24.2741C95.9932 24.2741 94.3705 16.5779 93.0256 12.8223C91.076 7.37805 87.2759 1.18284 87.2759 1.18284C87.2759 1.18284 85.7921 0.771445 82.2681 1.18284C78.744 1.59424 76.7038 2.30924 76.7038 2.30924ZM81.3407 4.74979C81.2551 5.67271 83.9303 10.7582 85.0502 13.3855C86.8105 17.5157 87.6468 20.7072 88.2033 22.0213C88.7597 23.3354 92.4692 22.96 92.4692 21.6458C92.4692 20.3317 91.5789 16.2016 90.2435 12.8223C88.3887 8.129 86.7337 5.29724 85.9776 4.37432C85.2214 3.4514 81.4263 3.82687 81.3407 4.74979ZM60.1966 28.7795C60.1966 28.7795 57.924 31.7832 56.1161 36.852C55.0014 39.9774 54.4468 42.8987 53.334 45.3C52.7188 46.6275 52.0585 45.5901 51.8502 46.2387C51.5501 47.1733 51.2937 47.3651 51.2937 47.3651C51.2937 47.3651 52.2211 47.7724 52.7775 47.9283C53.7084 48.1891 54.6323 48.5786 54.6323 48.5786L55.0033 46.9896L66.1318 49.8897L65.9463 50.9321C65.9463 50.9321 66.5408 51.1974 67.4301 51.3075C68.3081 51.4162 69.0993 51.4953 69.0993 51.4953C69.0993 51.4953 69.0901 50.8136 69.0993 49.8897C69.0774 49.1679 68.4042 49.8619 68.172 48.867C67.801 47.278 67.9163 43.9635 68.5429 40.419C69.2725 36.2923 72.0669 28.404 72.0669 28.404C72.0669 28.404 69.4658 28.404 67.0591 28.404C64.0915 28.404 60.1966 28.7795 60.1966 28.7795ZM57.0435 43.9859C56.8951 45.3392 64.8887 46.8879 65.0189 44.9246C65.0827 43.9626 65.4123 41.1844 65.9463 38.7294C66.5011 36.1787 67.4734 33.0973 67.801 31.7832C68.1287 30.4691 62.5032 30.7671 61.4949 31.7832C60.9985 32.2835 59.917 34.2895 58.8982 36.852C57.8478 39.4942 57.1188 43.2989 57.0435 43.9859ZM54.8177 11.5078C54.4468 12.6342 53.92 14.8437 55.1887 19.0172C55.9306 21.4577 57.9708 25.1123 61.1239 25.9633C65.3076 27.0926 72.9943 26.151 72.9943 26.151L70.954 22.9596C70.954 22.9596 67.7773 23.4289 66.5027 23.5228C65.228 23.6166 63.535 23.7105 62.0512 22.9596C60.5674 22.2086 59.0836 21.6454 57.7853 16.9521C56.3043 11.5984 59.8256 9.63046 61.3094 9.25499C64.0915 8.55099 65.2043 8.69179 65.2043 8.69179L63.906 5.68805C63.906 5.68805 60.4628 6.12533 58.3418 7.37765C56.1161 8.69179 55.1886 10.3814 54.8177 11.5078ZM65.5752 4.93704C65.5752 4.93704 67.0839 3.91056 69.0993 3.436C70.434 3.12172 72.7905 3.05124 73.9217 3.62373C76.1473 4.75014 76.3065 5.68881 76.7038 7.19068C77.101 8.69255 75.9619 11.5086 75.9619 11.5086C75.9619 11.5086 77.4457 10.9454 78.744 11.884C80.0423 12.8227 81.0605 14.5567 82.268 17.516C83.4756 20.4754 83.5663 25.4009 83.5663 25.4009C83.5663 25.4009 82.0991 25.7763 79.1149 25.9641C76.3328 26.1391 74.849 25.9641 74.849 25.9641C74.849 25.9641 72.3737 21.7985 71.1395 19.2057C70.0985 17.0188 69.551 15.8465 67.9864 11.6974C67.4633 10.3102 65.5752 4.93704 65.5752 4.93704ZM68.8889 6.43975C68.899 7.3053 70.3487 11.8153 71.1395 12.4472C71.9303 13.0792 73.6037 11.2999 74.1071 10.3822C75.0345 8.69144 73.9216 6.06512 72.6233 5.50108C71.325 4.93703 68.8788 5.57419 68.8889 6.43975ZM72.6233 15.8264C72.6233 17.1336 74.8516 22.027 76.0645 23.1481C77.2395 24.2341 80.2374 23.5753 80.5987 22.7726C81.0825 21.698 79.4859 16.0142 77.4457 14.7C76.4437 14.0547 72.6233 14.2493 72.6233 15.8264ZM74.1429 28.7862C74.1429 28.7862 74.4781 28.2163 77.2603 27.8408C78.5584 27.6656 81.8155 27.3326 82.6389 28.404C83.9374 30.0936 83.9638 33.0974 82.6389 34.9747C81.314 36.8521 79.1149 37.6031 79.1149 37.6031C79.1149 37.6031 80.2277 37.6032 81.5261 39.4805C82.8244 41.3578 83.3808 42.8597 82.6389 46.8021C81.897 50.7445 80.7842 51.6832 80.7842 51.6832C80.7842 51.6832 78.5585 52.2464 75.4054 51.8709C72.637 51.5413 70.3976 50.5568 70.3976 50.5568C70.3976 50.5568 70.097 46.0783 70.3976 41.921C70.954 34.2239 74.1429 28.7862 74.1429 28.7862ZM76.1473 31.0325C75.4054 31.5957 74.4781 34.036 74.1429 35.3502C73.8076 36.6643 78.6672 35.6192 79.4858 34.9747C81.1551 33.6606 81.5743 32.218 80.7842 31.0325C79.994 29.8469 76.8892 30.4693 76.1473 31.0325ZM73.5506 39.4805C73.0719 40.6945 72.5738 45.946 72.9942 47.5531C73.4015 49.11 77.8254 49.1565 78.5585 48.6795C79.5399 48.0409 80.5559 44.3616 79.4858 41.5456C78.5585 39.105 74.1429 37.9786 73.5506 39.4805ZM22.2656 5.88121C22.2656 5.88121 22.7674 14.1277 22.6365 17.7035C22.4511 22.7723 21.8187 25.7714 21.2469 29.6586C20.3437 35.7985 16.8868 43.9912 16.8868 43.9912C16.8868 43.9912 17.0723 44.1789 18.3706 44.3667C19.6689 44.5544 20.4108 44.5544 20.4108 44.5544C20.4108 44.5544 22.2952 40.7997 23.193 37.045C24.0907 33.2904 24.7295 29.6134 25.0477 28.597C25.3659 27.5807 32.5608 28.5986 32.4667 29.7234C32.3727 30.8482 32.0958 34.4168 30.4265 38.9224C28.7572 43.428 27.2713 45.5464 27.2713 45.5464C27.2713 45.5464 28.1908 45.8636 29.5932 45.8636C30.5407 45.8636 31.8189 45.5464 31.8189 45.5464C31.8189 45.5464 35.1453 36.8574 35.9907 30.6621C36.3219 28.2355 36.7394 24.6571 36.9181 22.2141C37.3263 16.6329 36.4186 8.88 36.4186 8.88C36.4186 8.88 34.7865 8.16638 29.9642 7.00266C25.554 5.93842 22.2656 5.88121 22.2656 5.88121ZM26.0692 10.0114C26.0692 8.83266 31.2614 10.3086 31.7256 11.1901C32.1899 12.0715 33.5796 13.5783 33.5796 17.7035C33.5796 20.6135 33.0354 23.5952 32.8377 24.4669C32.6399 25.3386 25.6923 25.0428 25.7896 23.9037C25.8869 22.7645 26.0692 22.0214 26.0692 17.7035C26.0692 13.3856 26.0692 11.1901 26.0692 10.0114Z" stroke="#1E444B" stroke-width="0.5" stroke-linecap="round" stroke-linejoin="round"/>
</svg>
