<svg width="72" height="80" viewBox="0 0 72 80" fill="none" xmlns="http://www.w3.org/2000/svg">
<path d="M36.0769 15.0678C40.2129 15.0678 43.5644 11.6932 43.5644 7.53576C43.5644 3.37186 40.213 0 36.0769 0C31.9381 0 28.5879 3.37186 28.5879 7.53576C28.588 11.6932 31.9382 15.0678 36.0769 15.0678Z" fill="#1E444B"/>
<path d="M42.5644 18.6377H35.9996H29.4349C25.8067 18.6377 21.8594 22.6092 21.8594 26.2608V51.5823C21.8594 53.4081 23.329 54.8879 25.1437 54.8879C26.0356 54.8879 25.1437 54.8879 27.4353 54.8879L28.6852 76.4825C28.6852 78.4253 30.2503 80.0002 32.1815 80.0002C32.9959 80.0002 34.4991 80.0002 35.9996 80.0002C37.5015 80.0002 39.0047 80.0002 39.819 80.0002C41.75 80.0002 43.3153 78.4255 43.3153 76.4825L44.5639 54.8879C46.8568 54.8879 45.9636 54.8879 46.8568 54.8879C48.6701 54.8879 50.1411 53.4081 50.1411 51.5823V26.2608C50.1411 22.6092 46.1936 18.6377 42.5644 18.6377Z" fill="#1E444B"/>
<path d="M12.4158 23.294C16.0284 23.294 18.9548 20.3487 18.9548 16.7152C18.9548 13.0806 16.0284 10.1353 12.4158 10.1353C8.80191 10.1353 5.87695 13.0807 5.87695 16.7152C5.87695 20.3485 8.80191 23.294 12.4158 23.294Z" fill="#1E444B"/>
<path d="M59.7166 23.294C63.3304 23.294 66.2554 20.3487 66.2554 16.7152C66.2554 13.0806 63.3304 10.1353 59.7166 10.1353C56.1053 10.1353 53.1777 13.0807 53.1777 16.7152C53.1777 20.3485 56.1053 23.294 59.7166 23.294Z" fill="#1E444B"/>
<path d="M17.5589 26.4102H12.3488H6.61509C3.44724 26.4102 0 29.8809 0 33.0683V55.1816C0 56.7772 1.28342 58.0685 2.86812 58.0685C3.64742 58.0685 2.86812 58.0685 4.86903 58.0685L5.95987 76.9284C5.95987 78.6241 7.3273 80 9.01404 80C9.72486 80 11.0367 80 12.3488 80C13.6594 80 14.9727 80 15.6835 80C17.3702 80 18.7377 78.6242 18.7377 76.9284L19.8273 58.0685V56.9983C18.4326 55.6146 17.5589 53.7043 17.5589 51.5821V26.4102Z" fill="#1E444B"/>
<path d="M65.3849 26.4102H59.65H54.4411V51.5821C54.4411 53.7043 53.5674 55.6146 52.1714 56.9983V58.0685L53.2611 76.9284C53.2611 78.6241 54.63 80 56.3166 80C57.0275 80 58.3394 80 59.65 80C60.9632 80 62.2752 80 62.986 80C64.6729 80 66.0391 78.6242 66.0391 76.9284L67.1312 58.0685C69.1319 58.0685 68.3526 58.0685 69.1319 58.0685C70.7166 58.0685 72 56.7771 72 55.1816V33.0683C72 29.8809 68.553 26.4102 65.3849 26.4102Z" fill="#1E444B"/>
</svg>
