<svg width="37" height="25" viewBox="0 0 37 25" fill="none" xmlns="http://www.w3.org/2000/svg">
<path fill-rule="evenodd" clip-rule="evenodd" d="M36.1159 9.91841L24.433 13.3643L21.7617 19.102L21.6765 22.628C22.9616 22.8716 23.2837 23.9614 23.211 24.8205L19.1062 24.7724L16.4602 19.5475L16.776 15.6145L8.07382 18.2013L5.50043 22.6184C7.7107 23.3652 6.88974 25 6.88974 25L1.87558 24.9744L0 19.5251C0 19.5251 2.37762 11.4282 3.20174 8.55289C4.48054 4.03322 7.59071 1.02332 12.8922 1.21244C17.7043 1.37592 23.8994 1.91122 26.7601 2.1324C27.8084 -0.752495 29.9903 0.125794 29.9903 0.125794L30.2808 2.51064C32.7026 3.03313 33.9751 4.17426 34.1298 5.7898L37 6.47577L36.1159 9.91841ZM12.9743 18.4417L12.7375 22.2369C13.9595 22.3619 14.7425 23.6217 14.7425 24.8846H9.44103L7.72649 21.4548L9.02108 19.6213L12.9743 18.4417ZM29.1472 19.0828C30.2934 20.8425 27.9726 23.8492 27.9726 23.8492L27.1295 23.4934C27.1295 23.4934 27.5179 21.1246 25.9234 20.4675C24.3288 19.8104 23.6278 19.4321 23.6278 19.4321L26.2581 14.624C26.2581 14.624 28.4399 18.0089 29.1472 19.0956V19.0828Z" fill="white"/>
</svg>
