<svg width="27" height="18" viewBox="0 0 27 18" fill="none" xmlns="http://www.w3.org/2000/svg">
<path fill-rule="evenodd" clip-rule="evenodd" d="M26.3548 7.14126L17.8295 9.62226L15.8802 13.7534L15.818 16.2921C16.7558 16.4675 16.9908 17.2522 16.9378 17.8708L13.9424 17.8361L12.0115 14.0742L12.2419 11.2424L5.89171 13.1049L4.01382 16.2852C5.62673 16.823 5.02765 18 5.02765 18L1.36866 17.9815L0 14.0581C0 14.0581 1.73502 8.22828 2.33641 6.15808C3.26959 2.90392 5.53917 0.736788 9.40783 0.872955C12.9194 0.990659 17.4401 1.37608 19.5277 1.53533C20.2926 -0.541797 21.8848 0.090572 21.8848 0.090572L22.0968 1.80766C23.8641 2.18385 24.7926 3.00547 24.9055 4.16866L27 4.66255L26.3548 7.14126ZM9.46774 13.278L9.29493 16.0106C10.1866 16.1006 10.7581 17.0076 10.7581 17.9169H6.8894L5.63825 15.4474L6.58295 14.1273L9.46774 13.278ZM21.2696 13.7396C22.106 15.0066 20.4124 17.1715 20.4124 17.1715L19.7972 16.9153C19.7972 16.9153 20.0806 15.2097 18.9171 14.7366C17.7535 14.2635 17.2419 13.9911 17.2419 13.9911L19.1613 10.5293C19.1613 10.5293 20.7535 12.9664 21.2696 13.7488V13.7396Z" fill="#1E444B"/>
</svg>
