<svg width="24" height="21" viewBox="0 0 24 21" fill="none" xmlns="http://www.w3.org/2000/svg">
<path d="M1.6 13.5C0.712499 13.5 0 14.168 0 15V19.5C0 20.332 0.712499 21 1.6 21H3.2C4.0875 21 4.8 20.332 4.8 19.5V15C4.8 14.168 4.0875 13.5 3.2 13.5H1.6Z" fill="#1E444B"/>
<path d="M8 9C7.1125 9 6.4 9.66797 6.4 10.5V19.5C6.4 20.332 7.1125 21 8 21H9.6C10.4875 21 11.2 20.332 11.2 19.5V10.5C11.2 9.66797 10.4875 9 9.6 9H8Z" fill="#1E444B"/>
<path d="M20.8 0C19.9125 0 19.2 0.667968 19.2 1.5V19.5C19.2 20.332 19.9125 21 20.8 21H22.4C23.2875 21 24 20.332 24 19.5V10.5V1.5C24 0.667968 23.2875 0 22.4 0H20.8Z" fill="#1E444B"/>
<path d="M14.4 4.5C13.5125 4.5 12.8 5.16797 12.8 6V19.5C12.8 20.332 13.5125 21 14.4 21H16C16.8875 21 17.6 20.332 17.6 19.5V6C17.6 5.16797 16.8875 4.5 16 4.5H14.4Z" fill="#1E444B"/>
</svg>
