<svg width="24" height="21" viewBox="0 0 24 21" fill="none" xmlns="http://www.w3.org/2000/svg">
<path d="M1.6 13.5C0.712499 13.5 0 14.168 0 15V19.5C0 20.332 0.712499 21 1.6 21H3.2C4.0875 21 4.8 20.332 4.8 19.5V15C4.8 14.168 4.0875 13.5 3.2 13.5H1.6Z" fill="#1E444B"/>
<path fill-rule="evenodd" clip-rule="evenodd" d="M19.2 1.5C19.2 0.667968 19.9125 0 20.8 0H22.4C23.2875 0 24 0.667968 24 1.5V19.5C24 20.332 23.2875 21 22.4 21H20.8C19.9125 21 19.2 20.332 19.2 19.5V1.5ZM12.8 6C12.8 5.16797 13.5125 4.5 14.4 4.5H16C16.8875 4.5 17.6 5.16797 17.6 6V19.5C17.6 20.332 16.8875 21 16 21H14.4C13.5125 21 12.8 20.332 12.8 19.5V6Z" fill="#1E444B" fill-opacity="0.5"/>
<path d="M8 9C7.1125 9 6.4 9.66797 6.4 10.5V19.5C6.4 20.332 7.1125 21 8 21H9.6C10.4875 21 11.2 20.332 11.2 19.5V10.5C11.2 9.66797 10.4875 9 9.6 9H8Z" fill="#1E444B" fill-opacity="0.5"/>
</svg>
