<svg width="70" height="80" viewBox="0 0 70 80" fill="none" xmlns="http://www.w3.org/2000/svg">
<g filter="url(#filter0_d_2900_932)">
<path d="M35 60C34.903 59.9986 34.8074 59.9773 34.72 59.9374C34.6326 59.8976 34.5555 59.8402 34.4941 59.7693C33.9039 59.0374 20 41.7502 20 34.1527C20 30.3992 21.5804 26.7994 24.3934 24.1452C27.2064 21.4911 31.0218 20 35 20C38.9782 20 42.7936 21.4911 45.6066 24.1452C48.4196 26.7994 50 30.3992 50 34.1527C50 41.7502 36.0961 59.0374 35.5059 59.7693C35.4445 59.8402 35.3674 59.8976 35.28 59.9374C35.1926 59.9773 35.097 59.9986 35 60ZM35 21.1933C31.3586 21.1975 27.8675 22.5642 25.2926 24.9937C22.7178 27.4231 21.2692 30.717 21.2648 34.1527C21.2648 40.5648 32.4705 55.187 35 58.4089C37.5295 55.2267 48.7352 40.5648 48.7352 34.1527C48.7308 30.717 47.2822 27.4231 44.7074 24.9937C42.1325 22.5642 38.6414 21.1975 35 21.1933Z" fill="#F0A54E"/>
<path d="M35 21.1933C31.3586 21.1975 27.8675 22.5642 25.2926 24.9937C22.7178 27.4231 21.2692 30.717 21.2648 34.1527C21.2648 40.5648 32.4705 55.187 35 58.4089C37.5295 55.2267 48.7352 40.5648 48.7352 34.1527C48.7308 30.717 47.2822 27.4231 44.7074 24.9937C42.1325 22.5642 38.6414 21.1975 35 21.1933Z" fill="#F0A54E"/>
<path fill-rule="evenodd" clip-rule="evenodd" d="M30.7799 29.014C30.6999 28.9317 30.6429 28.8286 30.6148 28.7157C30.5868 28.6027 30.5886 28.484 30.6202 28.3721C30.6518 28.2601 30.712 28.159 30.7945 28.0794C30.877 27.9998 30.9787 27.9446 31.0889 27.9197L35.0808 27.015C35.1837 26.9917 35.2906 26.9956 35.3916 27.0262C35.4927 27.0568 35.5847 27.1132 35.6592 27.1902C35.7337 27.2672 35.7882 27.3623 35.8178 27.4668C35.8474 27.5713 35.8511 27.6818 35.8286 27.7881L34.9527 31.9151C34.9285 32.0288 34.8752 32.1337 34.7984 32.2187C34.7216 32.3038 34.624 32.366 34.516 32.3987C34.408 32.4314 34.2934 32.4336 34.1843 32.4049C34.0752 32.3761 33.9756 32.3176 33.8959 32.2355L30.779 29.0132L30.7799 29.014ZM36.4215 45C37.11 45 37.7703 44.7172 38.2571 44.2139C38.744 43.7106 39.0175 43.028 39.0175 42.3162C39.0175 41.6044 38.744 40.9218 38.2571 40.4185C37.7703 39.9151 37.11 39.6324 36.4215 39.6324C35.733 39.6324 35.0727 39.9151 34.5859 40.4185C34.099 40.9218 33.8255 41.6044 33.8255 42.3162C33.8255 43.028 34.099 43.7106 34.5859 44.2139C35.0727 44.7172 35.733 45 36.4215 45ZM31.1542 31.8476C30.9971 31.6853 30.7842 31.5941 30.5621 31.5941C30.3401 31.5941 30.1271 31.6853 29.9701 31.8476L28.0415 33.8405C27.7113 34.1819 27.4494 34.5871 27.2707 35.0331C27.092 35.4792 27 35.9572 27 36.4399C27 36.9227 27.092 37.4007 27.2707 37.8467C27.4494 38.2927 27.7113 38.698 28.0415 39.0393L28.0449 39.0419C28.713 39.7309 29.6182 40.1176 30.5618 40.1171C31.5054 40.1166 32.4103 39.729 33.0777 39.0393L38.1064 33.8405C38.8433 33.0787 40.0366 33.0787 40.7735 33.8388C41.5088 34.5972 41.5096 35.8283 40.776 36.5884L40.7744 36.5893L39.2921 38.1217C39.135 38.284 39.0467 38.5042 39.0466 38.7339C39.0465 38.9635 39.1347 39.1838 39.2917 39.3463C39.4488 39.5087 39.6618 39.6 39.8839 39.6001C40.106 39.6002 40.3191 39.509 40.4762 39.3467L41.9585 37.8143L41.9618 37.8109C42.6277 37.1207 43.0011 36.1854 43 35.2106C42.9989 34.2359 42.6234 33.3015 41.956 32.6129C41.2879 31.924 40.3826 31.5373 39.439 31.5378C38.4954 31.5383 37.5905 31.9259 36.9231 32.6155L31.8936 37.8143C31.1575 38.5762 29.9642 38.5762 29.2265 37.8143C28.8741 37.4497 28.6761 36.9554 28.6761 36.4399C28.6761 35.9245 28.8741 35.4302 29.2265 35.0656L31.1542 33.0718C31.3112 32.9094 31.3994 32.6892 31.3994 32.4597C31.3994 32.2301 31.3112 32.01 31.1542 31.8476Z" fill="white"/>
</g>
<defs>
<filter id="filter0_d_2900_932" x="0" y="0" width="70" height="80" filterUnits="userSpaceOnUse" color-interpolation-filters="sRGB">
<feFlood flood-opacity="0" result="BackgroundImageFix"/>
<feColorMatrix in="SourceAlpha" type="matrix" values="0 0 0 0 0 0 0 0 0 0 0 0 0 0 0 0 0 0 127 0" result="hardAlpha"/>
<feOffset/>
<feGaussianBlur stdDeviation="10"/>
<feComposite in2="hardAlpha" operator="out"/>
<feColorMatrix type="matrix" values="0 0 0 0 1 0 0 0 0 1 0 0 0 0 1 0 0 0 1 0"/>
<feBlend mode="normal" in2="BackgroundImageFix" result="effect1_dropShadow_2900_932"/>
<feBlend mode="normal" in="SourceGraphic" in2="effect1_dropShadow_2900_932" result="shape"/>
</filter>
</defs>
</svg>
