<svg width="32" height="22" viewBox="0 0 32 22" fill="none" xmlns="http://www.w3.org/2000/svg">
<path d="M1 16.5849H3.70246M31 5.71988H28.2975M12.6975 16.5849H31M19.3025 5.71988H1M8.2 21C5.71472 21 3.7 18.9551 3.7 16.4325C3.7 13.9099 5.71472 11.8651 8.2 11.8651C10.6853 11.8651 12.7 13.9099 12.7 16.4325C12.7 18.9551 10.6853 21 8.2 21ZM23.8 10.135C26.2853 10.135 28.3 8.09003 28.3 5.56747C28.3 3.04493 26.2853 1 23.8 1C21.3146 1 19.3 3.04493 19.3 5.56747C19.3 8.09003 21.3146 10.135 23.8 10.135Z" stroke="#1E444B" stroke-width="2" stroke-miterlimit="10" stroke-linecap="round" stroke-linejoin="round"/>
</svg>
