<svg width="30" height="30" viewBox="0 0 30 30" fill="none" xmlns="http://www.w3.org/2000/svg">
<path d="M21.1325 8.97908C21.1384 8.97908 21.1464 8.97908 21.1544 8.97908C21.3625 8.97908 21.5558 9.04383 21.7141 9.15538L21.7112 9.15339C21.8267 9.25398 21.9044 9.39542 21.9233 9.55478V9.55777C21.9432 9.67928 21.9542 9.81873 21.9542 9.96116C21.9542 10.0259 21.9522 10.0896 21.9472 10.1534V10.1444C21.7231 12.504 20.751 18.2261 20.257 20.8675C20.0478 21.9861 19.6365 22.3606 19.238 22.3964C18.3725 22.4771 17.7151 21.8247 16.8765 21.2749C15.5637 20.4133 14.8217 19.8775 13.5478 19.0378C12.0747 18.0687 13.0299 17.5339 13.8685 16.6633C14.0886 16.4343 17.9044 12.9631 17.9791 12.6484C17.9831 12.6295 17.9851 12.6086 17.9851 12.5867C17.9851 12.509 17.9562 12.4382 17.9094 12.3845C17.8576 12.3506 17.7928 12.3317 17.7251 12.3317C17.6803 12.3317 17.6374 12.3406 17.5976 12.3556L17.5996 12.3546C17.4681 12.3845 15.3712 13.7703 11.3088 16.512C10.8655 16.8616 10.3058 17.0827 9.69622 17.1086H9.69024C8.82669 17.004 8.04283 16.8118 7.29881 16.5378L7.37251 16.5618C6.43825 16.257 5.69622 16.0966 5.75996 15.5807C5.79382 15.3124 6.16368 15.0378 6.86952 14.757C11.2175 12.8625 14.1169 11.6139 15.5677 11.011C17.1683 10.1614 19.0239 9.46215 20.9751 9.00896L21.1315 8.97809L21.1325 8.97908ZM14.9651 0C6.69622 0.0199203 0 6.72809 0 15C0 23.2839 6.71514 30 15 30C23.2849 30 30 23.2849 30 15C30 6.72809 23.3038 0.0199203 15.0369 0H15.0349C15.0116 0 14.9884 0 14.9651 0Z" fill="white"/>
</svg>
