<svg width="40" height="40" viewBox="0 0 40 40" fill="none" xmlns="http://www.w3.org/2000/svg">
<path d="M28.1766 11.9721C28.1846 11.9721 28.1952 11.9721 28.2058 11.9721C28.4834 11.9721 28.741 12.0584 28.9522 12.2072L28.9482 12.2045C29.1023 12.3386 29.2058 12.5272 29.2311 12.7397V12.7437C29.2576 12.9057 29.2722 13.0916 29.2722 13.2815C29.2722 13.3679 29.2696 13.4529 29.2629 13.5378V13.5259C28.9641 16.672 27.668 24.3015 27.0093 27.8234C26.7304 29.3147 26.1819 29.8141 25.6507 29.8619C24.4967 29.9695 23.6202 29.0996 22.502 28.3665C20.7517 27.2178 19.7623 26.5033 18.0637 25.3838C16.0996 24.0916 17.3732 23.3785 18.4914 22.2178C18.7849 21.9123 23.8725 17.2842 23.9721 16.8645C23.9774 16.8393 23.9801 16.8114 23.9801 16.7822C23.9801 16.6786 23.9416 16.5843 23.8792 16.5126C23.8101 16.4675 23.7238 16.4422 23.6335 16.4422C23.5737 16.4422 23.5166 16.4542 23.4635 16.4741L23.4661 16.4728C23.2908 16.5126 20.4949 18.3603 15.0784 22.0159C14.4874 22.4821 13.741 22.7769 12.9283 22.8114H12.9203C11.7689 22.672 10.7238 22.4157 9.73174 22.0505L9.83001 22.0823C8.58433 21.676 7.59495 21.4622 7.67995 20.7742C7.7251 20.4166 8.21824 20.0505 9.15936 19.676C14.9566 17.1501 18.8225 15.4852 20.757 14.6813C22.8911 13.5485 25.3652 12.6162 27.9668 12.012L28.1753 11.9708L28.1766 11.9721ZM19.9535 0C8.92829 0.0265604 0 8.97078 0 20C0 31.0452 8.95352 40 20 40C31.0465 40 40 31.0465 40 20C40 8.97078 31.0717 0.0265604 20.0491 0H20.0465C20.0155 0 19.9845 0 19.9535 0Z" fill="#1E444B"/>
</svg>
