<svg width="72" height="80" viewBox="0 0 72 80" fill="none" xmlns="http://www.w3.org/2000/svg">
<path d="M34.7586 10C15.6414 10 0 25.75 0 45C0 64.25 15.6414 80 34.7586 80C53.8759 80 69.5172 64.25 69.5172 45C69.5172 25.75 53.8759 10 34.7586 10ZM52.1379 47.5H41.7103C40.7172 50.5 37.9862 52.5 34.7586 52.5C30.5379 52.5 27.3103 49.25 27.3103 45C27.3103 41.75 29.2966 39 32.2759 38V22.5C32.2759 21 33.269 20 34.7586 20C36.2483 20 37.2414 21 37.2414 22.5V38C39.2276 38.75 40.9655 40.5 41.7103 42.5H52.1379C53.6276 42.5 54.6207 43.5 54.6207 45C54.6207 46.5 53.6276 47.5 52.1379 47.5Z" fill="#1E444B"/>
<path d="M59.5862 25C58.8414 25 58.3448 24.75 57.8483 24.25C56.8552 23.25 56.8552 21.75 57.8483 20.75L62.8138 15.75C63.8069 14.75 65.2966 14.75 66.2897 15.75C67.2828 16.75 67.2828 18.25 66.2897 19.25L61.3241 24.25C60.8276 24.75 60.331 25 59.5862 25Z" fill="#1E444B"/>
<path d="M69.5172 25C68.7724 25 68.2759 24.75 67.7793 24.25L57.8483 14.25C56.8552 13.25 56.8552 11.75 57.8483 10.75C58.8414 9.75 60.331 9.75 61.3241 10.75L71.2552 20.75C72.2483 21.75 72.2483 23.25 71.2552 24.25C70.7586 24.75 70.2621 25 69.5172 25Z" fill="#1E444B"/>
<path d="M34.7586 5C37.2414 5 39.7241 5.25 42.2069 5.75V5C42.2069 2.25 39.9724 0 37.2414 0H32.2759C29.5448 0 27.3103 2.25 27.3103 5V5.75C29.7931 5.25 32.2759 5 34.7586 5Z" fill="#1E444B"/>
</svg>
