<svg width="14" height="18" viewBox="0 0 14 18" fill="none" xmlns="http://www.w3.org/2000/svg">
<path d="M6.99996 10.754L7.5375 10.3546C7.40935 10.1925 7.21066 10.0975 6.99996 10.0975C6.78934 10.0975 6.59065 10.1925 6.46241 10.3546L6.99996 10.754ZM4.19034 12.0922L4.19241 11.4358C4.18766 11.4358 4.18292 11.4358 4.17817 11.4359L4.19034 12.0922ZM3.79025 5.42031L3.85661 6.07357C4.07397 6.05283 4.26767 5.9318 4.37686 5.74849C4.48606 5.56518 4.49735 5.34209 4.40718 5.14932L3.79025 5.42031ZM10.2097 5.42031L9.59277 5.14932C9.50264 5.34209 9.51393 5.56518 9.62311 5.74849C9.7323 5.9318 9.92603 6.05283 10.1434 6.07357L10.2097 5.42031ZM9.80961 12.0922L9.82181 11.4359C9.81711 11.4358 9.81232 11.4358 9.80753 11.4358L9.80961 12.0922ZM7.67731 10.754C7.67731 10.3914 7.37413 10.0975 6.99996 10.0975C6.62588 10.0975 6.3226 10.3914 6.3226 10.754H7.67731ZM6.3226 17.3436C6.3226 17.7061 6.62588 18 6.99996 18C7.37413 18 7.67731 17.7061 7.67731 17.3436H6.3226ZM6.3226 10.754C6.3226 11.1165 6.62588 11.4104 6.99996 11.4104C7.37413 11.4104 7.67731 11.1165 7.67731 10.754H6.3226ZM7.67731 9.01575C7.67731 8.65323 7.37413 8.35933 6.99996 8.35933C6.63086 8.35933 6.33054 8.64545 6.3226 9.0013C6.3225 9.0061 6.3226 9.01092 6.3226 9.01575H7.67731ZM7.67731 6.40319C7.67731 6.04066 7.37413 5.74677 6.99996 5.74677C6.62588 5.74677 6.3226 6.04066 6.3226 6.40319H7.67731ZM6.3226 7.27842C6.3226 7.64095 6.62588 7.93484 6.99996 7.93484C7.37091 7.93484 7.67216 7.64598 7.67731 7.28776C7.67735 7.28465 7.67731 7.28154 7.67731 7.27842H6.3226ZM7.40637 7.80356C7.58089 7.67672 7.67428 7.48395 7.67731 7.28776C7.67741 7.2812 7.67741 7.27464 7.67731 7.26807C7.67524 7.13426 7.63106 6.99982 7.54184 6.88457C7.31741 6.59454 6.89284 6.53576 6.59354 6.75328L7.40637 7.80356ZM4.78731 8.06613C4.48804 8.28362 4.42738 8.69507 4.65184 8.98512C4.87629 9.27517 5.30089 9.3339 5.60009 9.11641L4.78731 8.06613ZM7.67731 7.27842C7.67731 7.27497 7.67736 7.27152 7.67731 7.26807C7.67161 6.91032 7.37056 6.622 6.99996 6.622C6.62588 6.622 6.3226 6.91589 6.3226 7.27842H7.67731ZM6.3226 9.01575C6.3226 9.02044 6.3225 9.02512 6.3226 9.02979C6.33031 9.38583 6.63072 9.67218 6.99996 9.67218C7.37413 9.67218 7.67731 9.37827 7.67731 9.01575H6.3226ZM7.25482 8.40756C6.9082 8.2712 6.51308 8.43294 6.37237 8.76885C6.34044 8.84506 6.32435 8.92368 6.3226 9.0013C6.32239 9.01081 6.32239 9.02031 6.3226 9.02979C6.32833 9.28378 6.48684 9.52232 6.74518 9.62395L7.25482 8.40756ZM9.00302 10.5123C9.34964 10.6487 9.74468 10.4869 9.88538 10.151C10.0262 9.8151 9.85928 9.43228 9.51266 9.29592L9.00302 10.5123ZM6.46241 10.3546C6.41779 10.411 6.37114 10.4655 6.3226 10.5179C5.78253 11.1017 5.0084 11.4382 4.19241 11.4358L4.18825 12.7486C4.67523 12.7501 4.98732 12.7951 5.12346 12.7485C5.2596 12.702 5.36972 12.5598 5.5 12.5C6.09616 12.2265 7.12548 11.6741 7.5375 11.1533L6.46241 10.3546ZM4.17817 11.4359C2.68987 11.4618 1.44585 10.3445 1.35949 8.90443L0.00706349 8.98057C0.135607 11.1241 1.98725 12.787 4.2025 12.7485L4.17817 11.4359ZM1.35949 8.90443C1.27312 7.46429 2.37523 6.2149 3.85661 6.07357L3.72388 4.76704C1.51894 4.9774 -0.121471 6.83705 0.00706349 8.98057L1.35949 8.90443ZM4.40718 5.14932C4.24725 4.80737 4.1647 4.43622 4.16505 4.06079L2.81034 4.0596C2.80981 4.62237 2.93358 5.17872 3.1733 5.69129L4.40718 5.14932ZM4.16505 4.06079C4.16505 2.54347 5.43428 1.31285 6.99996 1.31285V0C4.68611 0 2.81034 1.81722 2.81034 4.0596L4.16505 4.06079ZM6.99996 1.31285C8.56572 1.31285 9.8349 2.54288 9.8349 4.0602H11.1896C11.1896 1.81781 9.31388 0 6.99996 0V1.31285ZM9.8349 4.0602C9.83526 4.43563 9.75272 4.80737 9.59277 5.14932L10.8266 5.69129C11.0664 5.17872 11.1901 4.62296 11.1896 4.0602H9.8349ZM10.1434 6.07357C11.6247 6.2149 12.7268 7.46429 12.6405 8.90443L13.9929 8.98057C14.1215 6.83705 12.481 4.9774 10.2761 4.76704L10.1434 6.07357ZM12.6405 8.90443C12.5542 10.3445 11.3101 11.4618 9.82181 11.4359L9.79751 12.7485C12.0127 12.787 13.8643 11.1241 13.9929 8.98057L12.6405 8.90443ZM9.80753 11.4358C8.99154 11.4382 8.21745 11.1017 7.67731 10.5179C7.62877 10.4654 7.58212 10.411 7.5375 10.3546L6.46241 11.1533C7.12444 11.9901 8.08934 12.5388 9.14772 12.6995C9.36569 12.7326 9.58762 12.7493 9.81169 12.7486L9.80753 11.4358ZM6.3226 10.754V14.5V15.5V17.3436H7.67731V14.8331V14.0488V10.754H6.3226ZM7.67731 10.754V10.5179V9.9907V9.01575H6.3226V9.02979V10.5179V10.754H7.67731ZM6.3226 6.40319V6.95021V7.27842H7.67731V7.26807V6.40319H6.3226ZM6.59354 6.75328L6.3226 6.95021L4.78731 8.06613L5.60009 9.11641L6.3226 8.59127L7.40637 7.80356L6.59354 6.75328ZM6.3226 7.27842V8.59127V9.0013V9.01575H7.67731V8.57379V7.28776V7.27842H6.3226ZM6.74518 9.62395L7.67731 9.9907L9.00302 10.5123L9.51266 9.29592L7.67731 8.57379L7.25482 8.40756L6.74518 9.62395Z" fill="#1E444B"/>
<path d="M4.17817 11.4359L4.19241 11.4358C5.0084 11.4382 5.78253 11.1017 6.3226 10.5179V9.02979C6.32239 9.02031 6.32239 9.01081 6.3226 9.0013V8.59127L5.60009 9.11641C5.30089 9.3339 4.87629 9.27517 4.65184 8.98512C4.42738 8.69507 4.48804 8.28362 4.78731 8.06613L6.3226 6.95021V6.40319C6.3226 6.04066 6.62588 5.74677 6.99996 5.74677C7.37413 5.74677 7.67731 6.04066 7.67731 6.40319V7.26807C7.67741 7.27464 7.67741 7.2812 7.67731 7.28776V8.57379L9.51266 9.29592C9.85928 9.43228 10.0262 9.8151 9.88538 10.151C9.74468 10.4869 9.34964 10.6487 9.00302 10.5123L7.67731 9.9907V10.5179C8.21745 11.1017 8.99154 11.4382 9.80753 11.4358L9.82181 11.4359C11.3101 11.4618 12.5542 10.3445 12.6405 8.90443C12.7268 7.46429 11.6247 6.2149 10.1434 6.07357C9.92603 6.05283 9.7323 5.9318 9.62311 5.74849C9.51393 5.56518 9.50264 5.34209 9.59277 5.14932C9.75272 4.80737 9.83526 4.43563 9.8349 4.0602C9.8349 2.54288 8.56572 1.31285 6.99996 1.31285C5.43428 1.31285 4.16505 2.54347 4.16505 4.06079C4.1647 4.43622 4.24725 4.80737 4.40718 5.14932C4.49735 5.34209 4.48606 5.56518 4.37686 5.74849C4.26767 5.9318 4.07397 6.05283 3.85661 6.07357C2.37523 6.2149 1.27312 7.46429 1.35949 8.90443C1.44585 10.3445 2.68987 11.4618 4.17817 11.4359Z" fill="#1E444B"/>
<path d="M9.79751 12.7485C9.5783 12.7485 9.36106 12.7319 9.14772 12.6995L7.67731 14.0488V14.8331L9.79751 12.7485Z" fill="#1E444B"/>
<path d="M6.3226 14.5L5.5 12.5C5.36972 12.5598 5.2596 12.702 5.12346 12.7485L6.3226 15.5V14.5Z" fill="#1E444B"/>
</svg>
