<svg width="30" height="30" viewBox="0 0 30 30" fill="none" xmlns="http://www.w3.org/2000/svg">
<circle cx="15" cy="15" r="15" fill="white"/>
<path d="M5.39999 9.6102C5.55345 17.1042 9.2937 21.6006 15.8535 21.6006H16.2372V17.3155C18.6444 17.5557 20.4666 19.3236 21.1954 21.6006H24.6C24.2509 20.3067 23.6317 19.1016 22.7837 18.0649C21.9356 17.0283 20.8779 16.1835 19.6801 15.5861C20.7534 14.9314 21.6804 14.0618 22.4032 13.032C23.1259 12.0021 23.629 10.834 23.8807 9.60059H20.7926C20.1213 11.9833 18.1265 14.145 16.2372 14.3467V9.6102H13.1394V17.9112C11.2214 17.4308 8.80459 15.1058 8.69909 9.6102H5.39999Z" fill="#1E444B"/>
</svg>
