<svg width="40" height="40" viewBox="0 0 40 40" fill="none" xmlns="http://www.w3.org/2000/svg">
<path d="M40 20C40 31.0457 31.0457 40 20 40C8.9543 40 0 31.0457 0 20C0 8.9543 8.9543 0 20 0C31.0457 0 40 8.9543 40 20Z" fill="#1E444B"/>
<path d="M7.2002 12.8134C7.4048 22.8054 12.3918 28.8005 21.1383 28.8005H21.6498V23.0871C24.8593 23.4074 27.289 25.7645 28.2607 28.8005H32.8002C32.3347 27.0754 31.5091 25.4686 30.3784 24.0863C29.2477 22.7041 27.8374 21.5777 26.2404 20.7812C27.6714 19.9083 28.9074 18.7488 29.8711 17.3757C30.8347 16.0026 31.5055 14.4451 31.8412 12.8005H27.7236C26.8286 15.9775 24.1688 18.8597 21.6498 19.1287V12.8134H17.5194V23.8814C14.962 23.2408 11.7397 20.1408 11.599 12.8134H7.2002Z" fill="white"/>
</svg>
